<svg id="visual" viewBox="0 0 900 600" width="900" height="600" xmlns="http://www.w3.org/2000/svg" xmlns:xlink="http://www.w3.org/1999/xlink" version="1.1"><path d="M818 600L827 591.7C836 583.3 854 566.7 860 550C866 533.3 860 516.7 863 500C866 483.3 878 466.7 882.5 450C887 433.3 884 416.7 878 400C872 383.3 863 366.7 863 350C863 333.3 872 316.7 873.5 300C875 283.3 869 266.7 860 250C851 233.3 839 216.7 833 200C827 183.3 827 166.7 830 150C833 133.3 839 116.7 845 100C851 83.3 857 66.7 858.5 50C860 33.3 857 16.7 855.5 8.3L854 0L900 0L900 8.3C900 16.7 900 33.3 900 50C900 66.7 900 83.3 900 100C900 116.7 900 133.3 900 150C900 166.7 900 183.3 900 200C900 216.7 900 233.3 900 250C900 266.7 900 283.3 900 300C900 316.7 900 333.3 900 350C900 366.7 900 383.3 900 400C900 416.7 900 433.3 900 450C900 466.7 900 483.3 900 500C900 516.7 900 533.3 900 550C900 566.7 900 583.3 900 591.7L900 600Z" fill="#4fa312"></path><path d="M800 600L807.5 591.7C815 583.3 830 566.7 830 550C830 533.3 815 516.7 819.5 500C824 483.3 848 466.7 858.5 450C869 433.3 866 416.7 861.5 400C857 383.3 851 366.7 846.5 350C842 333.3 839 316.7 833 300C827 283.3 818 266.7 810.5 250C803 233.3 797 216.7 795.5 200C794 183.3 797 166.7 801.5 150C806 133.3 812 116.7 812 100C812 83.3 806 66.7 800 50C794 33.3 788 16.7 785 8.3L782 0L855 0L856.5 8.3C858 16.7 861 33.3 859.5 50C858 66.7 852 83.3 846 100C840 116.7 834 133.3 831 150C828 166.7 828 183.3 834 200C840 216.7 852 233.3 861 250C870 266.7 876 283.3 874.5 300C873 316.7 864 333.3 864 350C864 366.7 873 383.3 879 400C885 416.7 888 433.3 883.5 450C879 466.7 867 483.3 864 500C861 516.7 867 533.3 861 550C855 566.7 837 583.3 828 591.7L819 600Z" fill="#5aa912"></path><path d="M746 600L758 591.7C770 583.3 794 566.7 794 550C794 533.3 770 516.7 765.5 500C761 483.3 776 466.7 788 450C800 433.3 809 416.7 804.5 400C800 383.3 782 366.7 779 350C776 333.3 788 316.7 786.5 300C785 283.3 770 266.7 752 250C734 233.3 713 216.7 711.5 200C710 183.3 728 166.7 734 150C740 133.3 734 116.7 725 100C716 83.3 704 66.7 698 50C692 33.3 692 16.7 692 8.3L692 0L783 0L786 8.3C789 16.7 795 33.3 801 50C807 66.7 813 83.3 813 100C813 116.7 807 133.3 802.5 150C798 166.7 795 183.3 796.5 200C798 216.7 804 233.3 811.5 250C819 266.7 828 283.3 834 300C840 316.7 843 333.3 847.5 350C852 366.7 858 383.3 862.5 400C867 416.7 870 433.3 859.5 450C849 466.7 825 483.3 820.5 500C816 516.7 831 533.3 831 550C831 566.7 816 583.3 808.5 591.7L801 600Z" fill="#64af11"></path><path d="M647 600L662 591.7C677 583.3 707 566.7 711.5 550C716 533.3 695 516.7 699.5 500C704 483.3 734 466.7 749 450C764 433.3 764 416.7 752 400C740 383.3 716 366.7 713 350C710 333.3 728 316.7 735.5 300C743 283.3 740 266.7 728 250C716 233.3 695 216.7 687.5 200C680 183.3 686 166.7 683 150C680 133.3 668 116.7 659 100C650 83.3 644 66.7 641 50C638 33.3 638 16.7 638 8.3L638 0L693 0L693 8.3C693 16.7 693 33.3 699 50C705 66.7 717 83.3 726 100C735 116.7 741 133.3 735 150C729 166.7 711 183.3 712.5 200C714 216.7 735 233.3 753 250C771 266.7 786 283.3 787.5 300C789 316.7 777 333.3 780 350C783 366.7 801 383.3 805.5 400C810 416.7 801 433.3 789 450C777 466.7 762 483.3 766.5 500C771 516.7 795 533.3 795 550C795 566.7 771 583.3 759 591.7L747 600Z" fill="#6eb511"></path><path d="M512 600L536 591.7C560 583.3 608 566.7 624.5 550C641 533.3 626 516.7 633.5 500C641 483.3 671 466.7 680 450C689 433.3 677 416.7 665 400C653 383.3 641 366.7 645.5 350C650 333.3 671 316.7 665 300C659 283.3 626 266.7 615.5 250C605 233.3 617 216.7 621.5 200C626 183.3 623 166.7 621.5 150C620 133.3 620 116.7 603.5 100C587 83.3 554 66.7 543.5 50C533 33.3 545 16.7 551 8.3L557 0L639 0L639 8.3C639 16.7 639 33.3 642 50C645 66.7 651 83.3 660 100C669 116.7 681 133.3 684 150C687 166.7 681 183.3 688.5 200C696 216.7 717 233.3 729 250C741 266.7 744 283.3 736.5 300C729 316.7 711 333.3 714 350C717 366.7 741 383.3 753 400C765 416.7 765 433.3 750 450C735 466.7 705 483.3 700.5 500C696 516.7 717 533.3 712.5 550C708 566.7 678 583.3 663 591.7L648 600Z" fill="#79bb11"></path><path d="M494 600L518 591.7C542 583.3 590 566.7 606.5 550C623 533.3 608 516.7 608 500C608 483.3 623 466.7 627.5 450C632 433.3 626 416.7 614 400C602 383.3 584 366.7 585.5 350C587 333.3 608 316.7 600.5 300C593 283.3 557 266.7 545 250C533 233.3 545 216.7 552.5 200C560 183.3 563 166.7 561.5 150C560 133.3 554 116.7 540.5 100C527 83.3 506 66.7 501.5 50C497 33.3 509 16.7 515 8.3L521 0L558 0L552 8.3C546 16.7 534 33.3 544.5 50C555 66.7 588 83.3 604.5 100C621 116.7 621 133.3 622.5 150C624 166.7 627 183.3 622.5 200C618 216.7 606 233.3 616.5 250C627 266.7 660 283.3 666 300C672 316.7 651 333.3 646.5 350C642 366.7 654 383.3 666 400C678 416.7 690 433.3 681 450C672 466.7 642 483.3 634.5 500C627 516.7 642 533.3 625.5 550C609 566.7 561 583.3 537 591.7L513 600Z" fill="#83c111"></path><path d="M467 600L471.5 591.7C476 583.3 485 566.7 491 550C497 533.3 500 516.7 518 500C536 483.3 569 466.7 575 450C581 433.3 560 416.7 551 400C542 383.3 545 366.7 540.5 350C536 333.3 524 316.7 510.5 300C497 283.3 482 266.7 485 250C488 233.3 509 216.7 515 200C521 183.3 512 166.7 504.5 150C497 133.3 491 116.7 468.5 100C446 83.3 407 66.7 398 50C389 33.3 410 16.7 420.5 8.3L431 0L522 0L516 8.3C510 16.7 498 33.3 502.5 50C507 66.7 528 83.3 541.5 100C555 116.7 561 133.3 562.5 150C564 166.7 561 183.3 553.5 200C546 216.7 534 233.3 546 250C558 266.7 594 283.3 601.5 300C609 316.7 588 333.3 586.5 350C585 366.7 603 383.3 615 400C627 416.7 633 433.3 628.5 450C624 466.7 609 483.3 609 500C609 516.7 624 533.3 607.5 550C591 566.7 543 583.3 519 591.7L495 600Z" fill="#8dc711"></path><path d="M377 600L378.5 591.7C380 583.3 383 566.7 389 550C395 533.3 404 516.7 408.5 500C413 483.3 413 466.7 410 450C407 433.3 401 416.7 410 400C419 383.3 443 366.7 434 350C425 333.3 383 316.7 359 300C335 283.3 329 266.7 324.5 250C320 233.3 317 216.7 339.5 200C362 183.3 410 166.7 422 150C434 133.3 410 116.7 375.5 100C341 83.3 296 66.7 276.5 50C257 33.3 263 16.7 266 8.3L269 0L432 0L421.5 8.3C411 16.7 390 33.3 399 50C408 66.7 447 83.3 469.5 100C492 116.7 498 133.3 505.5 150C513 166.7 522 183.3 516 200C510 216.7 489 233.3 486 250C483 266.7 498 283.3 511.5 300C525 316.7 537 333.3 541.5 350C546 366.7 543 383.3 552 400C561 416.7 582 433.3 576 450C570 466.7 537 483.3 519 500C501 516.7 498 533.3 492 550C486 566.7 477 583.3 472.5 591.7L468 600Z" fill="#98cd11"></path><path d="M179 600L185 591.7C191 583.3 203 566.7 201.5 550C200 533.3 185 516.7 189.5 500C194 483.3 218 466.7 213.5 450C209 433.3 176 416.7 150.5 400C125 383.3 107 366.7 96.5 350C86 333.3 83 316.7 81.5 300C80 283.3 80 266.7 101 250C122 233.3 164 216.7 210.5 200C257 183.3 308 166.7 294.5 150C281 133.3 203 116.7 155 100C107 83.3 89 66.7 95 50C101 33.3 131 16.7 146 8.3L161 0L270 0L267 8.3C264 16.7 258 33.3 277.5 50C297 66.7 342 83.3 376.5 100C411 116.7 435 133.3 423 150C411 166.7 363 183.3 340.5 200C318 216.7 321 233.3 325.5 250C330 266.7 336 283.3 360 300C384 316.7 426 333.3 435 350C444 366.7 420 383.3 411 400C402 416.7 408 433.3 411 450C414 466.7 414 483.3 409.5 500C405 516.7 396 533.3 390 550C384 566.7 381 583.3 379.5 591.7L378 600Z" fill="#a2d311"></path><path d="M0 600L0 591.7C0 583.3 0 566.7 0 550C0 533.3 0 516.7 0 500C0 483.3 0 466.7 0 450C0 433.3 0 416.7 0 400C0 383.3 0 366.7 0 350C0 333.3 0 316.7 0 300C0 283.3 0 266.7 0 250C0 233.3 0 216.7 0 200C0 183.3 0 166.7 0 150C0 133.3 0 116.7 0 100C0 83.3 0 66.7 0 50C0 33.3 0 16.7 0 8.3L0 0L162 0L147 8.3C132 16.7 102 33.3 96 50C90 66.7 108 83.3 156 100C204 116.7 282 133.3 295.5 150C309 166.7 258 183.3 211.5 200C165 216.7 123 233.3 102 250C81 266.7 81 283.3 82.5 300C84 316.7 87 333.3 97.5 350C108 366.7 126 383.3 151.5 400C177 416.7 210 433.3 214.5 450C219 466.7 195 483.3 190.5 500C186 516.7 201 533.3 202.5 550C204 566.7 192 583.3 186 591.7L180 600Z" fill="#add912"></path></svg>